<?xml version="1.0" standalone="no"?>
<!DOCTYPE svg PUBLIC "-//W3C//DTD SVG 20010904//EN"
 "http://www.w3.org/TR/2001/REC-SVG-20010904/DTD/svg10.dtd">
<svg version="1.0" xmlns="http://www.w3.org/2000/svg"
 width="2005.000000pt" height="2005.000000pt" viewBox="0 0 2005.000000 2005.000000"
 preserveAspectRatio="xMidYMid meet">
<metadata>
Created by potrace 1.11, written by Peter Selinger 2001-2013
</metadata>
<g transform="translate(0.000000,2005.000000) scale(0.100000,-0.100000)"
fill="#000000" stroke="none">
<path d="M13680 20014 c-149 -37 -147 -37 -345 -94 -599 -175 -1135 -419
-1566 -715 -585 -401 -992 -879 -1339 -1574 -70 -140 -210 -460 -210 -480 0
-4 -11 -35 -25 -68 -41 -103 -153 -488 -179 -618 -2 -11 -12 -56 -21 -100 -9
-44 -19 -89 -21 -100 -9 -46 -43 -264 -49 -310 -3 -27 -7 -61 -10 -75 -4 -26
-22 -213 -30 -310 -2 -30 -7 -133 -11 -229 l-7 -173 74 6 c41 4 90 9 109 11
19 2 58 7 85 9 77 9 376 46 410 52 490 81 680 141 987 310 179 99 448 284 573
395 17 14 71 62 120 105 185 161 424 412 590 619 31 39 64 79 73 90 9 11 64
86 122 168 186 259 364 573 479 847 29 69 56 134 61 145 39 89 137 387 184
555 75 272 119 513 143 780 10 110 10 425 0 517 -6 60 -51 260 -59 268 -2 2
-64 -12 -138 -31z"/>
<path d="M13868 15515 c-2 -2 -55 -6 -118 -9 -63 -3 -135 -9 -160 -11 -113
-13 -356 -46 -370 -50 -8 -3 -33 -7 -55 -11 -22 -3 -112 -21 -200 -40 -88 -19
-170 -37 -181 -40 -157 -32 -523 -140 -877 -259 -715 -239 -1121 -343 -1522
-392 -90 -11 -298 -5 -410 12 -340 50 -716 142 -1550 380 -88 25 -169 47 -180
50 -11 2 -92 23 -180 45 -321 80 -726 157 -1000 190 -49 6 -103 12 -120 15
-195 28 -834 28 -1040 0 -265 -36 -462 -74 -630 -121 -403 -113 -733 -260
-1089 -486 -858 -546 -1606 -1501 -2033 -2598 -48 -122 -170 -484 -198 -585
-101 -365 -171 -697 -220 -1045 -23 -165 -24 -171 -50 -415 -2 -22 -7 -80 -10
-130 -4 -49 -9 -106 -10 -125 -25 -261 -25 -1195 0 -1385 2 -16 6 -70 10 -120
8 -129 32 -354 56 -529 11 -83 22 -164 25 -181 46 -348 180 -962 304 -1398 97
-342 260 -828 368 -1099 16 -40 46 -116 67 -168 48 -119 176 -420 214 -503 16
-34 55 -118 86 -187 60 -131 314 -637 388 -775 446 -823 854 -1455 1268 -1965
65 -80 128 -157 141 -171 13 -14 48 -55 78 -90 30 -35 145 -154 255 -265 404
-405 757 -660 1160 -838 245 -109 485 -173 750 -201 64 -7 339 -8 385 -1 19 3
58 8 85 11 331 39 746 158 1260 363 339 135 438 172 635 233 103 32 373 104
430 114 19 3 55 11 80 16 25 6 56 13 70 15 282 41 373 48 575 48 131 -1 294
-9 344 -19 9 -1 45 -6 81 -9 36 -4 88 -11 115 -16 28 -5 66 -12 85 -15 263
-42 694 -159 1055 -285 675 -236 1080 -350 1408 -395 27 -4 57 -8 68 -10 149
-29 497 -26 664 6 28 5 66 12 85 15 77 12 282 76 400 124 223 92 488 243 675
386 42 33 86 66 98 74 12 8 86 70 164 138 241 208 483 458 718 743 258 311
545 715 808 1136 92 146 279 458 317 528 15 28 66 120 114 205 153 275 300
572 497 1007 121 267 379 978 361 994 -4 4 -45 19 -92 34 -355 116 -712 327
-1055 625 -49 42 -305 298 -360 360 -189 213 -418 526 -580 795 -76 126 -208
386 -276 545 -143 335 -274 809 -314 1135 -4 28 -8 57 -10 65 -2 8 -7 51 -11
95 -3 44 -8 89 -10 100 -8 40 -18 284 -18 440 0 390 29 634 129 1076 11 51 72
250 104 344 150 432 385 864 672 1235 260 337 661 745 1132 1152 64 56 117
105 117 108 0 8 -166 206 -268 320 -97 108 -436 448 -522 522 -36 32 -76 67
-90 79 -457 396 -1021 706 -1585 873 -197 58 -480 121 -635 141 -25 3 -56 8
-70 10 -14 2 -54 7 -90 10 -36 4 -76 8 -90 10 -90 13 -612 29 -622 20z"/>
</g>
</svg>
